<?xml version="1.0" encoding="UTF-8"?>
<svg width="960pt" height="480pt" version="1.1" viewBox="0 0 338.67 169.33" xml:space="preserve" xmlns="http://www.w3.org/2000/svg"><g transform="translate(109.78 -38.204)"><rect x="-109.45" y="38.536" width="338" height="168.67" fill="#fff" stroke="#fff" stroke-width=".66337"/><rect x="-88.347" y="59.639" width="295.8" height="126.46" fill="none"/><g transform="matrix(.55122 0 0 .55122 25.684 64.438)" fill="#7b65fa"><path class="st0" d="m3.34 0h116.2c1.84 0 3.34 1.5 3.34 3.34v76.98c0 1.84-1.5 3.34-3.34 3.34h-116.2c-1.84 0-3.34-1.5-3.34-3.34v-76.98c0-1.84 1.5-3.34 3.34-3.34zm42.95 88.27h30.3c0.08 5.24 2.24 9.94 8.09 13.63h-46.48c4.68-3.39 8.11-7.51 8.09-13.63zm15.15-15.86c2.37 0 4.29 1.92 4.29 4.29s-1.92 4.29-4.29 4.29-4.29-1.92-4.29-4.29 1.92-4.29 4.29-4.29zm-51.39-66.12h102.79c1.63 0 2.95 1.33 2.95 2.95v57.52c0 1.62-1.33 2.95-2.95 2.95h-102.79c-1.62 0-2.95-1.33-2.95-2.95v-57.52c-0.01-1.62 1.32-2.95 2.95-2.95z" fill="#7b65fa"/><g transform="matrix(.15831 0 0 .15831 30.498 8.5557)"><path d="m373.5 362h-373l124.17-264.87 74.799 54.988 97.564-152.11z" fill="#7b65fa"/></g></g><text x="-61.953655" y="167.21977" fill="#000000" font-family="sans-serif" font-size="7.0556px" stroke-width=".52917" style="font-variant-caps:normal;font-variant-east-asian:normal;font-variant-ligatures:normal;font-variant-numeric:normal" xml:space="preserve"><tspan x="-61.953655" y="167.21977" fill="#000000" font-family="'Roboto Mono Light for Powerline'" font-size="9.8778px" stroke-width=".52917" style="font-variant-caps:normal;font-variant-east-asian:normal;font-variant-ligatures:normal;font-variant-numeric:normal">Updating the current k6 metrics summaries</tspan></text><text x="-44.059826" y="180.81151" fill="#000000" font-family="sans-serif" font-size="7.0556px" stroke-width=".52917" style="font-variant-caps:normal;font-variant-east-asian:normal;font-variant-ligatures:normal;font-variant-numeric:normal" xml:space="preserve"><tspan x="-44.059826" y="180.81151" font-family="'Roboto Mono Light for Powerline'" font-size="9.8778px" stroke-width=".52917" style="font-variant-caps:normal;font-variant-east-asian:normal;font-variant-ligatures:normal;font-variant-numeric:normal">on the terminal during the test run</tspan></text><text x="-23.667774" y="144.43645" fill="#000000" font-family="'Roboto Mono Light for Powerline'" font-size="9.8778px" stroke-width=".52917" style="font-variant-caps:normal;font-variant-east-asian:normal;font-variant-ligatures:normal;font-variant-numeric:normal" xml:space="preserve"><tspan x="-23.667774" y="144.43645" font-family="'Roboto Mono Light for Powerline'" font-size="19.756px" stroke-width=".52917" style="font-variant-caps:normal;font-variant-east-asian:normal;font-variant-ligatures:normal;font-variant-numeric:normal">szkiba/<tspan font-family="'Roboto Mono for Powerline'" font-size="19.756px" font-weight="bold" style="font-variant-caps:normal;font-variant-east-asian:normal;font-variant-ligatures:normal;font-variant-numeric:normal">xk6-top</tspan></tspan></text></g><style type="text/css">.st0{fill-rule:evenodd;clip-rule:evenodd;}</style></svg>
