<?xml version="1.0" encoding="UTF-8"?>
<svg version="1.1" viewBox="0 0 256 256" xml:space="preserve" xmlns="http://www.w3.org/2000/svg"><style type="text/css">.st0{fill-rule:evenodd;clip-rule:evenodd;}</style><g transform="matrix(2.0833 0 0 2.0833 -.0002007 21.854)" fill="#7b65fa"><path class="st0" d="m3.34 0h116.2c1.84 0 3.34 1.5 3.34 3.34v76.98c0 1.84-1.5 3.34-3.34 3.34h-116.2c-1.84 0-3.34-1.5-3.34-3.34v-76.98c0-1.84 1.5-3.34 3.34-3.34zm42.95 88.27h30.3c0.08 5.24 2.24 9.94 8.09 13.63h-46.48c4.68-3.39 8.11-7.51 8.09-13.63zm15.15-15.86c2.37 0 4.29 1.92 4.29 4.29s-1.92 4.29-4.29 4.29-4.29-1.92-4.29-4.29 1.92-4.29 4.29-4.29zm-51.39-66.12h102.79c1.63 0 2.95 1.33 2.95 2.95v57.52c0 1.62-1.33 2.95-2.95 2.95h-102.79c-1.62 0-2.95-1.33-2.95-2.95v-57.52c-0.01-1.62 1.32-2.95 2.95-2.95z" fill="#7b65fa"/><g transform="matrix(.15831 0 0 .15831 30.498 8.5557)"><path d="m373.5 362h-373l124.17-264.87 74.799 54.988 97.564-152.11z" fill="#7b65fa"/></g></g></svg>
